<?xml version="1.0" encoding="UTF-8"?>
<!DOCTYPE svg PUBLIC "-//W3C//DTD SVG 1.1//EN" "http://www.w3.org/Graphics/SVG/1.1/DTD/svg11.dtd">
<!-- Creator: CorelDRAW 2020 (64-Bit Deneme Sürümü) -->
<svg xmlns="http://www.w3.org/2000/svg" xml:space="preserve" width="96.7103mm" height="96.7103mm" version="1.1" style="shape-rendering:geometricPrecision; text-rendering:geometricPrecision; image-rendering:optimizeQuality; fill-rule:evenodd; clip-rule:evenodd"
viewBox="0 0 9089.79 9089.79"
 xmlns:xlink="http://www.w3.org/1999/xlink"
 xmlns:xodm="http://www.corel.com/coreldraw/odm/2003">
 <defs>
  <style type="text/css">
   <![CDATA[
    .str0 {stroke:#FEFEFE;stroke-width:102.59;stroke-miterlimit:22.9256}
    .fil2 {fill:none;fill-rule:nonzero}
    .fil1 {fill:#FEFEFE}
    .fil0 {fill:#FEFEFE;fill-rule:nonzero}
   ]]>
  </style>
 </defs>
 <g id="Katman_x0020_1">
  <metadata id="CorelCorpID_0Corel-Layer"/>
  <path class="fil0" d="M3952.04 2956.54l69.09 0 0 541.75 -69.09 0 0 -541.75zm-169.06 -35.36l407.22 0 0 65.16 -407.22 0 0 -65.16z"/>
  <path class="fil0" d="M4666.58 2921.18l69.09 0 0 577.11 -69.09 0 0 -577.11zm-339.76 0l69.09 0 0 577.11 -69.09 0 0 -577.11zm44.44 259.16l332.32 0 0 66.39 -332.32 0 0 -66.39z"/>
  <path class="fil0" d="M4935.69 2921.18l69.09 0 0 577.11 -69.09 0 0 -577.11zm39.29 512.08l331.5 0 0 65.02 -331.5 0 0 -65.02zm0 -254.01l287.74 0 0 65.02 -287.74 0 0 -65.02zm0 -258.08l331.5 0 0 65.16 -331.5 0 0 -65.16z"/>
  <polygon class="fil0" points="2336.67,3966.01 2488.59,3966.01 2488.59,5123.78 2330.14,5123.78 2330.14,4256.81 2338.3,4307.63 2053.2,4962.88 1940.14,4962.88 1655.05,4323.67 1662.92,4256.81 1662.92,5123.78 1504.49,5123.78 1504.49,3966.01 1656.67,3966.01 1996.67,4730.52 "/>
  <polygon class="fil0" points="3052.65,5123.78 2890.13,5123.78 2890.13,3966.01 3052.65,3966.01 "/>
  <path class="fil0" d="M3563.99 4969.41l261.99 0c85.33,0 151.65,-22.28 198.39,-66.58 47.02,-44.31 70.66,-106.81 70.66,-187.53l0 -340.81c0,-80.72 -23.64,-143.23 -70.66,-187.53 -46.74,-44.3 -113.06,-66.32 -198.39,-66.32l-261.99 0 0 -154.64 257.1 0c92.95,0 172.3,16.31 238.08,48.65 65.77,32.34 116.05,79.63 150.56,141.6 34.51,62.24 51.64,136.98 51.64,224.76l0 328.04c0,87.5 -17.12,162.25 -51.64,224.49 -34.51,61.96 -84.79,109.25 -151.11,141.6 -66.04,32.34 -145.4,48.65 -238.35,48.65l-256.28 0 0 -154.37zm-110.07 -1003.41l162.52 0 0 1157.78 -162.52 0 0 -1157.78z"/>
  <path class="fil0" d="M4733.03 4969.41l261.99 0c85.34,0 151.66,-22.28 198.4,-66.58 47.01,-44.31 70.66,-106.81 70.66,-187.53l0 -340.81c0,-80.72 -23.65,-143.23 -70.66,-187.53 -46.74,-44.3 -113.06,-66.32 -198.4,-66.32l-261.99 0 0 -154.64 257.1 0c92.95,0 172.31,16.31 238.08,48.65 65.77,32.34 116.05,79.63 150.57,141.6 34.51,62.24 51.63,136.98 51.63,224.76l0 328.04c0,87.5 -17.12,162.25 -51.63,224.49 -34.52,61.96 -84.8,109.25 -151.12,141.6 -66.04,32.34 -145.4,48.65 -238.35,48.65l-256.28 0 0 -154.37zm-110.07 -1003.41l162.53 0 0 1157.78 -162.53 0 0 -1157.78z"/>
  <path class="fil0" d="M5792 3966.01l162.52 0 0 1157.78 -162.52 0 0 -1157.78zm81.25 1003.41l662.6 0 0 154.37 -662.6 0 0 -154.37z"/>
  <path class="fil0" d="M6841.46 3966.01l162.52 0 0 1157.78 -162.52 0 0 -1157.78zm78.81 1003.41l665.04 0 0 154.37 -665.04 0 0 -154.37zm0 -497.62l577.26 0 0 154.36 -577.26 0 0 -154.36zm0 -505.79l665.04 0 0 154.64 -665.04 0 0 -154.64z"/>
  <polygon class="fil1" points="1025.5,5366.37 8099.19,5366.37 8099.19,5407.08 1025.5,5407.08 "/>
  <path class="fil0" d="M3006.62 6351.84c-39.96,0 -75.05,-8.8 -105.4,-26.55 -30.34,-17.75 -53.78,-42.93 -70.45,-75.46 -16.66,-32.51 -25.06,-70.3 -25.06,-113.12l0 -158.36c0,-42.81 8.4,-80.62 25.06,-113.13 16.66,-32.51 40.11,-57.71 70.45,-75.6 30.35,-17.88 65.44,-26.82 105.4,-26.82 33.06,0 63.54,6.91 91.3,20.73 27.77,13.68 50.94,33.32 69.64,58.66 18.69,25.47 31.3,54.86 37.93,88.19l0 0 -69.9 0 0 0c-5.83,-19.92 -15.31,-37.53 -28.32,-52.97 -13.14,-15.57 -28.45,-27.49 -46.06,-36.03 -17.61,-8.4 -35.77,-12.6 -54.6,-12.6 -26.01,0 -48.77,6.23 -68.41,18.56 -19.79,12.46 -35.1,29.94 -45.93,52.43 -10.84,22.48 -16.26,48.63 -16.26,78.58l0 158.36c0,29.66 5.42,55.68 16.26,78.16 10.84,22.49 26.14,39.96 45.93,52.16 19.63,12.32 42.4,18.55 68.41,18.55 19.1,0 37.26,-4.06 54.73,-11.92 17.47,-8 32.78,-19.64 45.92,-34.95 13.01,-15.31 22.49,-33.46 28.32,-54.33l0 0 69.9 0 0 0c-6.64,33.33 -19.37,62.59 -38.21,87.93 -18.69,25.2 -41.99,44.83 -69.77,58.66 -27.76,13.95 -58.11,20.86 -90.9,20.86z"/>
  <path class="fil0" d="M3634.66 6351.84c-41.59,0 -77.62,-8.67 -107.97,-25.73 -30.48,-17.2 -53.92,-41.86 -70.31,-73.7 -16.39,-31.83 -24.65,-69.63 -24.65,-113.26l0 -163.51c0,-43.75 8.26,-81.55 24.65,-113.52 16.39,-32.11 39.83,-56.63 70.31,-73.71 30.35,-17.06 66.38,-25.6 107.97,-25.6 41.46,0 77.49,8.54 108.11,25.6 30.49,17.08 53.92,41.6 70.17,73.71 16.4,31.97 24.52,69.77 24.52,113.52l0 163.51c0,43.63 -8.12,81.42 -24.52,113.26 -16.25,31.83 -39.68,56.5 -70.17,73.7 -30.62,17.07 -66.65,25.73 -108.11,25.73zm0 -66.65c27.23,0 50.81,-5.83 70.72,-17.34 20.05,-11.51 35.36,-28.04 46.06,-49.58 10.71,-21.54 16.13,-47.01 16.13,-76.4l0 -169.08c0,-29.66 -5.41,-55.27 -16.13,-76.81 -10.7,-21.54 -26.01,-38.07 -46.06,-49.58 -19.91,-11.52 -43.49,-17.21 -70.72,-17.21 -27.36,0 -50.94,5.69 -70.85,17.21 -20.05,11.51 -35.36,28.04 -45.92,49.58 -10.57,21.54 -15.85,47.15 -15.85,76.81l0 169.08c0,29.39 5.27,54.86 15.85,76.4 10.56,21.54 25.88,38.07 45.92,49.58 19.91,11.51 43.49,17.34 70.85,17.34z"/>
  <path class="fil0" d="M4099.33 5768.78l69.09 0 0 577.11 -69.09 0 0 -577.11zm39.69 263.22l279.88 0 0 65.02 -279.88 0 0 -65.02zm0 -263.22l323.5 0 0 65.16 -323.5 0 0 -65.16z"/>
  <path class="fil0" d="M4700.68 5768.78l69.09 0 0 577.11 -69.09 0 0 -577.11zm39.7 263.22l279.88 0 0 65.02 -279.88 0 0 -65.02zm0 -263.22l323.5 0 0 65.16 -323.5 0 0 -65.16z"/>
  <path class="fil0" d="M5302.03 5768.78l69.09 0 0 577.11 -69.09 0 0 -577.11zm39.29 512.08l331.5 0 0 65.02 -331.5 0 0 -65.02zm0 -254.01l287.74 0 0 65.02 -287.74 0 0 -65.02zm0 -258.08l331.5 0 0 65.16 -331.5 0 0 -65.16z"/>
  <path class="fil0" d="M5926.82 5768.78l69.09 0 0 577.11 -69.09 0 0 -577.11zm39.29 512.08l331.5 0 0 65.02 -331.5 0 0 -65.02zm0 -254.01l287.74 0 0 65.02 -287.74 0 0 -65.02zm0 -258.08l331.5 0 0 65.16 -331.5 0 0 -65.16z"/>
  <path class="fil2 str0" d="M4544.9 51.29c2481.75,0 4493.6,2011.85 4493.6,4493.61 0,2481.75 -2011.85,4493.6 -4493.6,4493.6 -2481.76,0 -4493.61,-2011.85 -4493.61,-4493.6 0,-2481.76 2011.85,-4493.61 4493.61,-4493.61z"/>
 </g>
</svg>
